<svg width="16" height="15" viewBox="0 0 16 15" fill="none" xmlns="http://www.w3.org/2000/svg">
<path d="M13.875 11.25C14.2728 11.25 14.6544 11.092 14.9357 10.8107C15.217 10.5294 15.375 10.1478 15.375 9.75V1.5C15.375 1.10218 15.217 0.720644 14.9357 0.43934C14.6544 0.158035 14.2728 0 13.875 0H5.97C6.2325 0.4575 6.375 0.975 6.375 1.5H13.875V9.75H7.125V11.25M10.125 3.75V5.25H5.625V15H4.125V10.5H2.625V15H1.125V9H0V5.25C0 4.85218 0.158035 4.47064 0.43934 4.18934C0.720644 3.90804 1.10218 3.75 1.5 3.75H10.125ZM4.875 1.5C4.875 1.89782 4.71696 2.27936 4.43566 2.56066C4.15436 2.84196 3.77282 3 3.375 3C2.97718 3 2.59564 2.84196 2.31434 2.56066C2.03304 2.27936 1.875 1.89782 1.875 1.5C1.875 1.10218 2.03304 0.720644 2.31434 0.43934C2.59564 0.158035 2.97718 0 3.375 0C3.77282 0 4.15436 0.158035 4.43566 0.43934C4.71696 0.720644 4.875 1.10218 4.875 1.5Z" fill="#2C416E"/>
</svg>
