<svg width="18" height="18" viewBox="0 0 18 18" fill="none" xmlns="http://www.w3.org/2000/svg">
<path d="M3.2385 14.7716C2.25 13.7831 2.25 12.1916 2.25 9.01013C2.25 5.82863 2.25 4.23713 3.2385 3.24863C4.227 2.26013 5.8185 2.26013 9 2.26013C12.1815 2.26013 13.773 2.26013 14.7615 3.24863C15.75 4.23713 15.75 5.82863 15.75 9.01013C15.75 12.1916 15.75 13.7831 14.7615 14.7716C13.773 15.7601 12.1815 15.7601 9 15.7601C5.8185 15.7601 4.227 15.7601 3.2385 14.7716Z" stroke="#2C416E" stroke-width="1.2" stroke-linecap="round" stroke-linejoin="round"/>
<path d="M5.25 10.5101L7.34475 8.41538C7.4854 8.27478 7.67613 8.19579 7.875 8.19579C8.07387 8.19579 8.2646 8.27478 8.40525 8.41538L9.59475 9.60488C9.7354 9.74549 9.92613 9.82447 10.125 9.82447C10.3239 9.82447 10.5146 9.74549 10.6552 9.60488L12.75 7.51013" stroke="#2C416E" stroke-width="0.75" stroke-linecap="round" stroke-linejoin="round"/>
</svg>
