<svg width="18" height="18" viewBox="0 0 18 18" fill="none" xmlns="http://www.w3.org/2000/svg">
<path d="M7.5 1.5C8.07391 1.49997 8.62614 1.71924 9.0437 2.11296C9.46126 2.50668 9.71258 3.04508 9.74625 3.618L9.75 3.75V4.5H12C12.3784 4.49988 12.7429 4.6428 13.0204 4.90012C13.2979 5.15744 13.4679 5.51013 13.4963 5.8875L13.5 6V8.25H14.25C14.8357 8.24944 15.3985 8.47726 15.8189 8.88508C16.2392 9.29289 16.484 9.84855 16.5012 10.434C16.5184 11.0194 16.3066 11.5885 15.9109 12.0202C15.5152 12.452 14.9667 12.7125 14.382 12.7463L14.25 12.75H13.5V15C13.5001 15.3784 13.3572 15.7429 13.0999 16.0204C12.8426 16.2979 12.4899 16.4679 12.1125 16.4963L12 16.5H9.75C9.37157 16.5001 9.00707 16.3572 8.72959 16.0999C8.4521 15.8426 8.28213 15.4899 8.25375 15.1125L8.25 15V14.25C8.24979 14.0588 8.17659 13.875 8.04536 13.736C7.91414 13.597 7.73479 13.5133 7.54395 13.5021C7.35312 13.4909 7.16522 13.553 7.01863 13.6757C6.87204 13.7984 6.77783 13.9724 6.75525 14.1622L6.75 14.25V15C6.75012 15.3784 6.6072 15.7429 6.34988 16.0204C6.09256 16.2979 5.73987 16.4679 5.3625 16.4963L5.25 16.5H3C2.62157 16.5001 2.25708 16.3572 1.97959 16.0999C1.7021 15.8426 1.53213 15.4899 1.50375 15.1125L1.5 15V12.75C1.49988 12.3716 1.6428 12.0071 1.90012 11.7296C2.15744 11.4521 2.51013 11.2821 2.8875 11.2537L3 11.25H3.75C3.94116 11.2498 4.12502 11.1766 4.26403 11.0454C4.40303 10.9141 4.48668 10.7348 4.49788 10.544C4.50908 10.3531 4.44699 10.1652 4.3243 10.0186C4.20161 9.87204 4.02757 9.77783 3.83775 9.75525L3.75 9.75H3C2.62157 9.75012 2.25708 9.60719 1.97959 9.34988C1.7021 9.09256 1.53213 8.73987 1.50375 8.3625L1.5 8.25V6C1.49988 5.62157 1.6428 5.25708 1.90012 4.97959C2.15744 4.7021 2.51013 4.53213 2.8875 4.50375L3 4.5H5.25V3.75C5.25 3.15326 5.48705 2.58097 5.90901 2.15901C6.33097 1.73705 6.90326 1.5 7.5 1.5Z" fill="#2C416E"/>
</svg>
